{"title":"Songs of Praise 3","uid":7074595,"size":3901043260,"categoryP":"video","categoryS":"tv_shows","magnet":"?xt=urn:btih:ae367ee1ce4dff51db35507ef7df3cfd4195e8d5&amp;dn=Songs+of+Praise+3&amp;tr=udp%3A%2F%2Ftracker.openbittorrent.com%3A80&amp;tr=udp%3A%2F%2Fopen.demonii.com%3A1337&amp;tr=udp%3A%2F%2Ftracker.coppersurfer.tk%3A6969&amp;tr=udp%3A%2F%2Fexodus.desync.com%3A6969","seeders":0,"leechers":0,"uploader":"kokyzake","files":5,"time":1330791148,"description":"Pack 3:\n\n2011-04-24 The Easter Story\n2011-05-01 Anglesey's Royal Celebration\n2011-05-08 Cathedrals (Nothing)\n2011-05-15 Sissinghurst\n2011-05-22 School Assemblies\n\n\nVideo\nID                                       : 0\nFormat                                   : MPEG-4 Visual\nFormat profile                           : Simple@L3\nFormat settings, BVOP                    : No\nFormat settings, QPel                    : No\nFormat settings, GMC                     : No warppoints\nFormat settings, Matrix                  : Default (H.263)\nCodec ID                                 : XVID\nCodec ID/Hint                            : XviD\nDuration                                 : 34mn 15s\nBit rate                                 : 4 247 Kbps\nWidth                                    : 720 pixels\nHeight                                   : 404 pixels\nDisplay aspect ratio                     : 16:9\nFrame rate                               : 29.970 fps\nOriginal frame rate                      : 29.000 fps\nColor space                              : YUV\nChroma subsampling                       : 4:2:0\nBit depth                                : 8 bits\nScan type                                : Progressive\nCompression mode                         : Lossy\nBits/(Pixel*Frame)                       : 0.487\nStream size                              : 1.02 GiB (97%)\nWriting library                          : XviD 1.2.1 (UTC 2008-12-04)\n\nAudio\nID                                       : 1\nFormat                                   : MPEG Audio\nFormat version                           : Version 1\nFormat profile                           : Layer 3\nMode                                     : Joint stereo\nMode extension                           : MS Stereo\nCodec ID                                 : 55\nCodec ID/Hint                            : MP3\nDuration                                 : 34mn 15s\nBit rate mode                            : Constant\nBit rate                                 : 128 Kbps\nChannel(s)                               : 2 channels\nSampling rate                            : 44.1 KHz\nCompression mode                         : Lossy\nStream size                              : 31.4 MiB (3%)\nAlignment                                : Aligned on interleaves\nInterleave, duration                     : 26 ms (0.78 video frame)\nInterleave, preload duration             : 130 ms\nWriting library                          : LAME3.98\n","torrent":{"xt":"urn:btih:ae367ee1ce4dff51db35507ef7df3cfd4195e8d5","amp;dn":"Songs+of+Praise+3","amp;tr":["udp%3A%2F%2Ftracker.openbittorrent.com%3A80","udp%3A%2F%2Fopen.demonii.com%3A1337","udp%3A%2F%2Ftracker.coppersurfer.tk%3A6969","udp%3A%2F%2Fexodus.desync.com%3A6969"],"infoHash":"ae367ee1ce4dff51db35507ef7df3cfd4195e8d5","infoHashBuffer":{"type":"Buffer","data":[174,54,126,225,206,77,255,81,219,53,80,126,247,223,60,253,65,149,232,213]},"announce":[],"urlList":[]}}